<?xml version="1.0" standalone="no"?><!DOCTYPE svg PUBLIC "-//W3C//DTD SVG 1.1//EN" "http://www.w3.org/Graphics/SVG/1.1/DTD/svg11.dtd"><svg t="1494480672110" class="icon" style="" viewBox="0 0 1024 1024" version="1.1" xmlns="http://www.w3.org/2000/svg" p-id="6264" xmlns:xlink="http://www.w3.org/1999/xlink" width="200" height="200"><defs><style type="text/css"></style></defs><path d="M874.048 149.952c-199.936-199.936-524.128-199.936-724.064 0s-199.936 524.128 0 724.064c199.936 199.936 524.128 199.936 724.064 0s199.936-524.128 0-724.064M380.096 698.176a38.4 38.4 0 1 1-54.304-54.304l252.576-252.576h-208.992a38.4 38.4 0 1 1 0.064-76.8h301.664a38.4 38.4 0 0 1 38.368 38.368l0.032 301.728a38.496 38.496 0 0 1-38.432 38.432 38.496 38.496 0 0 1-38.432-38.432v-208.992" fill="" p-id="6265"></path></svg>