<?xml version="1.0" standalone="no"?><!DOCTYPE svg PUBLIC "-//W3C//DTD SVG 1.1//EN" "http://www.w3.org/Graphics/SVG/1.1/DTD/svg11.dtd"><svg t="1494482878443" class="icon" style="" viewBox="0 0 1024 1024" version="1.1" xmlns="http://www.w3.org/2000/svg" p-id="1585" xmlns:xlink="http://www.w3.org/1999/xlink" width="200" height="200"><defs><style type="text/css"></style></defs><path d="M512 332.8c-38.4 0-76.8 32-76.8 76.8v51.2h147.2v-57.6c6.4-38.4-32-70.4-70.4-70.4zM512 544c-19.2 0-32 12.8-32 32 0 12.8 6.4 19.2 12.8 25.6v25.6c0 6.4 6.4 12.8 19.2 12.8 12.8 0 19.2-6.4 19.2-19.2v-19.2c6.4-6.4 12.8-19.2 12.8-25.6 0-19.2-12.8-32-32-32z" fill="" p-id="1586"></path><path d="M851.2 179.2h-25.6c-12.8 0-32-6.4-64-12.8s-57.6-12.8-83.2-25.6c-57.6-19.2-108.8-44.8-147.2-70.4L512 51.2l-19.2 19.2c-38.4 25.6-89.6 51.2-147.2 76.8-25.6 6.4-51.2 19.2-83.2 25.6s-51.2 6.4-64 12.8-19.2 0-25.6 0h-38.4v377.6c0 44.8 12.8 89.6 38.4 140.8s57.6 89.6 96 128 76.8 64 121.6 89.6c44.8 25.6 83.2 32 115.2 32s70.4-12.8 115.2-32c44.8-25.6 83.2-51.2 121.6-89.6 38.4-38.4 70.4-76.8 96-128 25.6-51.2 38.4-96 38.4-140.8V185.6l-25.6-6.4z m-179.2 499.2c0 12.8-12.8 25.6-25.6 25.6H377.6c-12.8 0-25.6-12.8-25.6-25.6V480c0-12.8 12.8-25.6 25.6-25.6h25.6v-51.2c0-64 51.2-108.8 108.8-108.8s108.8 51.2 108.8 108.8v51.2h25.6c12.8 0 25.6 12.8 25.6 25.6v198.4z" fill="" p-id="1587"></path></svg>