<?xml version="1.0" standalone="no"?><!DOCTYPE svg PUBLIC "-//W3C//DTD SVG 1.1//EN" "http://www.w3.org/Graphics/SVG/1.1/DTD/svg11.dtd"><svg t="1494480788673" class="icon" style="" viewBox="0 0 1024 1024" version="1.1" xmlns="http://www.w3.org/2000/svg" p-id="9968" xmlns:xlink="http://www.w3.org/1999/xlink" width="200" height="200"><defs><style type="text/css"></style></defs><path d="M106.268814 212.201983l341.774037 0-1.995447 85.937255 87.932702 0-1.995447-85.937255c5.996574-47.972595-39.97034-83.941807-83.941807-83.941807l-341.774037 0c-43.961234 0-89.938382 35.969213-83.941807 83.941807l-1.995447 597.590354c5.996574 45.966914 29.982872 85.946464 81.94636 85.946464l45.966914 0 1.995447-171.884742-43.971467 0 2.00568-511.653099L106.268814 212.20096zM915.724483 384.087749l-595.594907 0c-51.963489 0-79.950913 35.969213-85.947488 83.941807l2.00568 341.763804c-5.996574 45.966914 39.97034 85.946464 81.94636 85.946464l599.585801 0c41.97602 0 89.938382-39.97955 83.941807-85.946464l2.00568-341.763804C997.670843 420.055938 965.692524 384.087749 915.724483 384.087749L915.724483 384.087749zM364.101043 681.880085l-87.942935 0 1.995447-85.937255 83.941807 0L364.101043 681.880085zM915.724483 809.79336l-509.657652 0-1.995447-341.763804 513.648546 0L915.724483 809.79336z" p-id="9969"></path></svg>