<?xml version="1.0" standalone="no"?><!DOCTYPE svg PUBLIC "-//W3C//DTD SVG 1.1//EN" "http://www.w3.org/Graphics/SVG/1.1/DTD/svg11.dtd"><svg t="1494480766231" class="icon" style="" viewBox="0 0 1024 1024" version="1.1" xmlns="http://www.w3.org/2000/svg" p-id="9279" xmlns:xlink="http://www.w3.org/1999/xlink" width="200" height="200"><defs><style type="text/css"></style></defs><path d="M916.728346 384.087749l-297.80257 0 0 83.941807 297.80257 0 0 341.763804-297.80257 0c0 45.966914-43.962258 85.946464-43.962258 85.946464l341.763804 0c45.966914 0 85.937255-39.97955 85.937255-85.946464l0-341.763804C1002.665601 420.055938 962.695261 384.087749 916.728346 384.087749L916.728346 384.087749zM447.050244 128.261199l-339.77859 0c-47.962362 0-85.937255 35.969213-85.937255 83.941807l0 597.590354c0 45.966914 37.974893 85.946464 85.937255 85.946464l339.77859 0c47.962362 0 85.938278-39.97955 85.938278-85.946464l0-597.590354C532.988522 164.229388 495.012605 128.261199 447.050244 128.261199L447.050244 128.261199zM319.136969 851.768357l-83.952041 0 0-83.941807 83.952041 0L319.136969 851.768357zM447.050244 723.855082l-339.77859 0 0-511.653099 339.77859 0L447.050244 723.855082z" p-id="9280"></path></svg>