<?xml version="1.0" standalone="no"?><!DOCTYPE svg PUBLIC "-//W3C//DTD SVG 1.1//EN" "http://www.w3.org/Graphics/SVG/1.1/DTD/svg11.dtd"><svg t="1494480739743" class="icon" style="" viewBox="0 0 1024 1024" version="1.1" xmlns="http://www.w3.org/2000/svg" p-id="8612" xmlns:xlink="http://www.w3.org/1999/xlink" width="200" height="200"><defs><style type="text/css"></style></defs><path d="M572.777225 152.506393l0 298.729685 298.718429 0C845.557912 299.725362 724.287941 178.450275 572.777225 152.506393z" p-id="8613"></path><path d="M936.955528 481.612922c-3.331885-46.644343-14.19735-91.955318-32.43676-135.077441-17.755386-41.97602-41.851177-80.401168-71.774697-114.586758-0.284479-0.326435-0.577145-0.64673-0.862647-0.972141-1.779529-2.02103-3.568269-4.034896-5.38873-6.025227-0.783853-0.858554-1.586125-1.700735-2.37714-2.553149-1.387603-1.493004-2.768043-2.992147-4.178159-4.467755-1.932002-2.022053-3.892657-4.02057-5.867638-6.008854-0.330528-0.333598-0.650823-0.674359-0.983397-1.006933-0.37146-0.37146-0.754177-0.730641-1.12666-1.101077-1.947352-1.933025-3.90289-3.853771-5.884011-5.745864-1.466398-1.401929-2.956332-2.774183-4.441149-4.1536-0.861624-0.799202-1.713015-1.610684-2.580778-2.402723-1.979074-1.810229-3.982708-3.588735-5.991458-5.359055-0.336668-0.295735-0.669242-0.598634-1.006933-0.893346-34.186613-29.925566-72.612785-54.023404-114.590851-71.77879-46.758953-19.777439-93.669356-30.884404-143.94439-33.116235l-22.140253-1.698688 0 427.969165 365.28552 0 61.398372 0 1.270946 0L936.955528 481.612922zM572.777225 451.236078 572.777225 152.506393c151.510716 25.943882 272.780687 147.21897 298.718429 298.729685L572.777225 451.236078z" p-id="8614"></path><path d="M511.364527 877.936343c-201.427592 0-365.299847-163.873278-365.299847-365.30087 0-179.554422 130.216737-329.265142 301.172317-359.662453L447.236997 90.702792c-35.008328 5.266957-69.125357 14.885012-101.972463 28.77844-50.814316 21.4925-96.444563 52.255131-135.62184 91.432409-39.177278 39.177278-69.939909 84.806501-91.432409 135.62184-22.258956 52.625568-33.545 108.509343-33.545 166.099992s11.286044 113.474424 33.545 166.099992c21.4925 50.815339 52.255131 96.444563 91.432409 135.62184 39.177278 39.177278 84.806501 69.939909 135.62184 91.433432 52.625568 22.257933 108.509343 33.543977 166.099992 33.543977s113.475448-11.286044 166.099992-33.543977c50.814316-21.493523 96.443539-52.255131 135.620817-91.433432s69.939909-84.806501 91.433432-135.62184c14.253632-33.69952 23.9996-68.736501 29.17139-104.700597l-62.192458 0C842.215794 746.33098 691.87267 877.936343 511.364527 877.936343z" p-id="8615"></path></svg>