<?xml version="1.0" standalone="no"?><!DOCTYPE svg PUBLIC "-//W3C//DTD SVG 1.1//EN" "http://www.w3.org/Graphics/SVG/1.1/DTD/svg11.dtd"><svg t="1494316756355" class="icon" style="" viewBox="0 0 1024 1024" version="1.1" xmlns="http://www.w3.org/2000/svg" p-id="1669" xmlns:xlink="http://www.w3.org/1999/xlink" width="200" height="200"><defs><style type="text/css"></style></defs><path d="M70.4 772c-13.6 0-24-10.4-24-24V140.8c0-13.6 10.4-24 24-24h882.4c13.6 0 24 10.4 24 24v607.2c0 16-11.2 24-22.4 24H70.4z m24-44h836V166.4H94.4V728z" fill="" p-id="1670"></path><path d="M733.6 662.4c-13.6 0-24-10.4-24-24s10.4-24 24-24h93.6c13.6 0 24 10.4 24 24s-12.8 24-24 24H733.6zM512 884c-13.6 0-24-10.4-24-24V758.4c0-13.6 10.4-24 24-24s24 10.4 24 24v103.2c-0.8 12-11.2 22.4-24 22.4z" fill="" p-id="1671"></path><path d="M316 904.8c-13.6 0-24-10.4-24-24s10.4-24 24-24h392.8c13.6 0 24 10.4 24 24s-12.8 24-24 24H316z" fill="" p-id="1672"></path></svg>